Coordinates
version=1
nRows=13
nColumns=22
inDegrees=yes

Units are S.I. units (second, meters, Newtons, ...)
If the header above contains a line with 'inDegrees', this indicates whether rotational values are in degrees (yes) or radians (no).

endheader
time	pelvis_tilt	pelvis_list	pelvis_rotation	pelvis_tx	pelvis_ty	pelvis_tz	hip_flexion_r	hip_adduction_r	hip_rotation_r	knee_angle_r	ankle_angle_r	subtalar_angle_r	hip_flexion_l	hip_adduction_l	hip_rotation_l	knee_angle_l	ankle_angle_l	subtalar_angle_l	lumbar_extension	lumbar_bending	lumbar_rotation
      0.01000000	      2.99168537	      1.98714888	    173.04082206	      0.06084455	      0.93846311	      1.21840397	      4.15966436	      3.32540999	     -4.06080438	    -12.79285879	     12.30891438	     -1.09329974	      7.73337544	     -3.21411333	     -8.89271099	    -20.24301635	     14.58262443	     -2.89264368	     -7.11399890	     -0.51550042	     -4.04389786
      0.02000000	      2.98452620	      1.83334101	    172.87033098	      0.06018328	      0.93827663	      1.21865359	      4.49530971	      3.11493319	     -3.92687904	    -13.45042557	     12.58121088	     -1.04374600	      7.61215941	     -3.01320475	     -9.05190265	    -20.13121560	     14.60892835	     -2.95765554	     -7.21093837	     -0.69700208	     -4.11347162
      0.03000000	      2.98503999	      1.64493722	    172.67129000	      0.05943572	      0.93800868	      1.21892262	      4.92969182	      2.86328797	     -3.76382816	    -14.27000187	     12.90282191	     -0.97645095	      7.49017101	     -2.77392948	     -9.24399210	    -20.01221711	     14.64649807	     -3.03451400	     -7.32071975	     -0.92263957	     -4.19753743
      0.04000000	      2.99253055	      1.42483160	    172.44489588	      0.05864155	      0.93765547	      1.21917160	      5.45694726	      2.57879260	     -3.57184028	    -15.23649017	     13.26530737	     -0.89553622	      7.37490333	     -2.50305541	     -9.46303094	    -19.89576531	     14.69110711	     -3.11889102	     -7.43868423	     -1.19033794	     -4.29914172
      0.05000000	      3.03579378	      1.18091375	    172.20709280	      0.05785996	      0.93716804	      1.21939262	      6.11039897	      2.27576640	     -3.36731677	    -16.34968202	     13.61801152	     -0.79363225	      7.31366680	     -2.21815393	     -9.70683034	    -19.80234172	     14.75526189	     -3.23456072	     -7.53209309	     -1.48756864	     -4.42234655
      0.06000000	      3.01797483	      0.91383900	    171.96639717	      0.05706978	      0.93669936	      1.21956531	      6.74895111	      1.94880983	     -3.11860766	    -17.54596095	     14.03947532	     -0.71112102	      7.18779748	     -1.90285729	     -9.95280119	    -19.70385232	     14.81652188	     -3.27998314	     -7.71187207	     -1.83026875	     -4.57539499
      0.07000000	      3.06283376	      0.62907057	    171.72935395	      0.05636248	      0.93606191	      1.21969035	      7.53478458	      1.61836292	     -2.87302394	    -18.86768748	     14.38067715	     -0.60078855	      7.16508132	     -1.59035867	    -10.21857242	    -19.65374819	     14.89186311	     -3.36006655	     -7.83171032	     -2.19027774	     -4.76417979
      0.08000000	      3.06006064	      0.33299051	    171.50450203	      0.05567068	      0.93544354	      1.21978351	      8.30572438	      1.27790092	     -2.60651888	    -20.24669797	     14.72078118	     -0.49676143	      7.09702549	     -1.26150322	    -10.47440412	    -19.60232738	     14.96704877	     -3.40569079	     -8.01981387	     -2.57379996	     -4.98921815
      0.09000000	      3.00442350	      0.03058298	    171.28798343	      0.05495872	      0.93487542	      1.21984999	      9.04529163	      0.92882699	     -2.33110841	    -21.66847970	     15.04135515	     -0.40647380	      6.96737217	     -0.91724910	    -10.71831439	    -19.53412313	     15.03673163	     -3.42110083	     -8.27601038	     -2.97268993	     -5.23844804
      0.10000000	      2.94382536	     -0.26784016	    171.08103740	      0.05423885	      0.93430216	      1.21988115	      9.80818092	      0.58773637	     -2.06889674	    -23.13807943	     15.26392500	     -0.30436456	      6.84457455	     -0.58200270	    -10.96580520	    -19.48398799	     15.11188502	     -3.44114384	     -8.54302582	     -3.36879340	     -5.52044254
      0.11000000	      2.85960633	     -0.55000185	    170.88223277	      0.05347527	      0.93377264	      1.21989157	     10.56161357	      0.26296507	     -1.81972608	    -24.63962204	     15.39948830	     -0.19653331	      6.70002801	     -0.26212796	    -11.20911494	    -19.44302206	     15.19358132	     -3.46221054	     -8.84071557	     -3.74530489	     -5.82718882
      0.12000000	      2.75699453	     -0.80530618	    170.69087016	      0.05266253	      0.93329455	      1.21988630	     11.30880325	     -0.03459962	     -1.58525167	    -26.17078726	     15.43563360	     -0.08097835	      6.54346531	      0.03031539	    -11.44681540	    -19.42422627	     15.28180389	     -3.48604491	     -9.16464197	     -4.08620458	     -6.15458438
      0.13000000	      2.63083094	     -1.02356072	    170.49986969	      0.05178959	      0.93288655	      1.21983083	     12.04748585	     -0.29435879	     -1.37448874	    -27.74094897	     15.36972860	      0.02484260	      6.36123939	      0.28642217	    -11.66540606	    -19.41857536	     15.38176595	     -3.50121089	     -9.51791695	     -4.38655678	     -6.48891476
